<?xml version="1.0" encoding="utf-8"?>
<!-- Generator: Adobe Illustrator 27.5.0, SVG Export Plug-In . SVG Version: 6.00 Build 0)  -->
<svg version="1.1" xmlns="http://www.w3.org/2000/svg" xmlns:xlink="http://www.w3.org/1999/xlink" x="0px" y="0px"
	 viewBox="0 0 900 500" style="enable-background:new 0 0 900 500;" xml:space="preserve">
<g id="BACKGROUND">
	<rect style="fill:#E8ECFA;" width="900" height="500"/>
</g>
<g id="OBJECTS">
	<g>
		<path style="fill:#A4B1E3;" d="M835.654,179.437H706.896c-5.523,0-10-4.477-10-10V91.175c0-5.523,4.477-10,10-10h128.758
			c5.523,0,10,4.477,10,10v78.262C845.654,174.96,841.177,179.437,835.654,179.437z"/>
		<path style="fill:#FFFFFF;" d="M845.654,169.437H716.896c-5.523,0-10-4.477-10-10V81.175c0-5.523,4.477-10,10-10h128.758
			c5.523,0,10,4.477,10,10v78.262C855.654,164.96,851.177,169.437,845.654,169.437z"/>
		
			<line style="fill:none;stroke:#A4B1E3;stroke-width:2;stroke-linecap:round;stroke-linejoin:round;stroke-miterlimit:10;" x1="725.896" y1="99.175" x2="764.23" y2="99.175"/>
		
			<line style="fill:none;stroke:#A4B1E3;stroke-width:2;stroke-linecap:round;stroke-linejoin:round;stroke-miterlimit:10;" x1="725.896" y1="113.986" x2="826.17" y2="113.986"/>
		
			<line style="fill:none;stroke:#A4B1E3;stroke-width:2;stroke-linecap:round;stroke-linejoin:round;stroke-miterlimit:10;" x1="725.896" y1="126.259" x2="826.17" y2="126.259"/>
		
			<line style="fill:none;stroke:#A4B1E3;stroke-width:2;stroke-linecap:round;stroke-linejoin:round;stroke-miterlimit:10;" x1="725.896" y1="138.532" x2="778.23" y2="138.532"/>
		<g>
			<circle style="fill:#8EBBCA;" cx="855.654" cy="71.175" r="21.579"/>
			
				<polyline style="fill:none;stroke:#FFFFFF;stroke-width:2;stroke-linecap:round;stroke-linejoin:round;stroke-miterlimit:10;" points="
				848.729,72.393 854.432,78.911 867.495,63.44 			"/>
		</g>
	</g>
	<g>
		<path style="fill:#A4B1E3;" d="M669.646,279.474h-126c-5.523,0-10-4.477-10-10v-23.229c0-5.523,4.477-10,10-10h126
			c5.523,0,10,4.477,10,10v23.229C679.646,274.997,675.168,279.474,669.646,279.474z"/>
		<path style="fill:#C3CDEF;" d="M679.646,269.474h-126c-5.523,0-10-4.477-10-10v-23.229c0-5.523,4.477-10,10-10h126
			c5.523,0,10,4.477,10,10v23.229C689.646,264.997,685.168,269.474,679.646,269.474z"/>
		<rect x="580.312" y="187.833" style="fill:#A4B1E3;" width="24" height="61.484"/>
		<rect x="610.646" y="175.017" style="fill:#6E7DD0;" width="24" height="74.3"/>
		
			<rect x="643.979" y="161.276" style="fill:none;stroke:#FFFFFF;stroke-width:2;stroke-linecap:round;stroke-linejoin:round;stroke-miterlimit:10;" width="24" height="88.041"/>
		
			<line style="fill:none;stroke:#FFFFFF;stroke-width:2;stroke-linecap:round;stroke-linejoin:round;stroke-miterlimit:10;" x1="561.646" y1="249.317" x2="667.979" y2="249.317"/>
		<polygon style="fill:#8EBBCA;" points="668.256,131.784 638.322,125.886 642.124,136.081 546.078,171.899 549.646,181.465 
			645.691,145.647 649.493,155.843 		"/>
	</g>
	<path style="fill:none;stroke:#FFFFFF;stroke-width:2;stroke-linecap:round;stroke-linejoin:round;stroke-miterlimit:10;" d="
		M513.777,163.138h-94.75c-5.523,0-10-4.477-10-10v-94.75c0-5.523,4.477-10,10-10h94.75c5.523,0,10,4.477,10,10v94.75
		C523.777,158.661,519.299,163.138,513.777,163.138z"/>
	<path style="fill:#A4B1E3;" d="M131.696,204.222H33.36c-5.523,0-10-4.477-10-10v-58.167c0-5.523,4.477-10,10-10h98.336
		c5.523,0,10,4.477,10,10v58.167C141.696,199.745,137.219,204.222,131.696,204.222z"/>
	<path style="fill:#FFFFFF;" d="M139.696,196.222H41.36c-5.523,0-10-4.477-10-10v-58.167c0-5.523,4.477-10,10-10h98.336
		c5.523,0,10,4.477,10,10v58.167C149.696,191.745,145.219,196.222,139.696,196.222z"/>
	
		<line style="fill:none;stroke:#A4B1E3;stroke-width:2;stroke-linecap:round;stroke-linejoin:round;stroke-miterlimit:10;" x1="50.36" y1="137.055" x2="78.693" y2="137.055"/>
	
		<line style="fill:none;stroke:#A4B1E3;stroke-width:2;stroke-linecap:round;stroke-linejoin:round;stroke-miterlimit:10;" x1="50.36" y1="150.865" x2="110.633" y2="150.865"/>
	
		<line style="fill:none;stroke:#A4B1E3;stroke-width:2;stroke-linecap:round;stroke-linejoin:round;stroke-miterlimit:10;" x1="50.36" y1="163.138" x2="110.633" y2="163.138"/>
	
		<line style="fill:none;stroke:#A4B1E3;stroke-width:2;stroke-linecap:round;stroke-linejoin:round;stroke-miterlimit:10;" x1="50.36" y1="175.411" x2="72.693" y2="175.411"/>
	<circle style="fill:#C3CDEF;" cx="264.36" cy="124.055" r="57.552"/>
	<path style="fill:#6E7DD0;" d="M301.55,167.962l-37.19-43.907l-57.352-4.61c-0.121,1.522-0.2,3.056-0.2,4.61
		c0,31.785,25.767,57.552,57.552,57.552C278.543,181.607,291.518,176.467,301.55,167.962z"/>
	<path style="fill:#A4B1E3;" d="M264.36,181.607c14.183,0,27.158-5.14,37.19-13.646l-37.19-43.907l-36.845,44.205
		C237.498,176.59,250.341,181.607,264.36,181.607z"/>
	<path style="fill:#8EBBCA;" d="M199.008,118.798L199.008,118.798l65.352,5.253l-6.217-65.279
		C226.569,61.742,201.523,87.093,199.008,118.798z"/>
	
		<line style="fill:none;stroke:#A4B1E3;stroke-width:2;stroke-linecap:round;stroke-linejoin:round;stroke-miterlimit:10;" x1="167.878" y1="58.772" x2="199.008" y2="58.772"/>
	
		<line style="fill:none;stroke:#A4B1E3;stroke-width:2;stroke-linecap:round;stroke-linejoin:round;stroke-miterlimit:10;" x1="167.878" y1="68.305" x2="199.008" y2="68.305"/>
	
		<line style="fill:none;stroke:#A4B1E3;stroke-width:2;stroke-linecap:round;stroke-linejoin:round;stroke-miterlimit:10;" x1="167.878" y1="77.838" x2="189.008" y2="77.838"/>
	
		<line style="fill:none;stroke:#A4B1E3;stroke-width:2;stroke-linecap:round;stroke-linejoin:round;stroke-miterlimit:10;" x1="346.396" y1="98.517" x2="377.526" y2="98.517"/>
	
		<line style="fill:none;stroke:#A4B1E3;stroke-width:2;stroke-linecap:round;stroke-linejoin:round;stroke-miterlimit:10;" x1="346.396" y1="108.05" x2="377.526" y2="108.05"/>
	
		<line style="fill:none;stroke:#A4B1E3;stroke-width:2;stroke-linecap:round;stroke-linejoin:round;stroke-miterlimit:10;" x1="346.396" y1="117.584" x2="367.526" y2="117.584"/>
	
		<polyline style="fill:none;stroke:#6E7DD0;stroke-width:2;stroke-linecap:round;stroke-linejoin:round;stroke-miterlimit:10;" points="
		208.693,68.305 220.693,68.305 231.684,83.055 	"/>
	
		<polyline style="fill:none;stroke:#6E7DD0;stroke-width:2;stroke-linecap:round;stroke-linejoin:round;stroke-miterlimit:10;" points="
		337.912,107.142 325.912,107.142 314.922,121.892 	"/>
	<path style="fill:#C3CDEF;" d="M466.402,148.639c-23.642,0-42.875-19.233-42.875-42.875s19.233-42.875,42.875-42.875
		c23.642,0,42.875,19.233,42.875,42.875S490.044,148.639,466.402,148.639z M466.402,77.888c-15.37,0-27.875,12.505-27.875,27.875
		s12.505,27.875,27.875,27.875c15.37,0,27.875-12.505,27.875-27.875S481.772,77.888,466.402,77.888z"/>
	<g>
		<path style="fill:#8EBBCA;" d="M510.36,108.846h-16.457c0-16.864-13.72-30.583-30.583-30.583V61.806
			C489.258,61.806,510.36,82.908,510.36,108.846z"/>
	</g>
	<text transform="matrix(1 0 0 1 447.86 111.555)" style="fill:#6E7DD0; font-family:'Roboto-Bold'; font-size:20px;">20%</text>
	<path style="fill:#A4B1E3;" d="M605.539,68.966c0-2.323-0.346-4.564-0.951-6.696l6.058-3.497l-6.023-10.433l-6.062,3.5
		c-3.124-3.213-7.117-5.558-11.594-6.692v-7.002h-12.047v7.002c-4.477,1.134-8.47,3.479-11.593,6.692l-6.062-3.5l-6.023,10.433
		l6.057,3.497c-0.605,2.132-0.951,4.373-0.951,6.696c0,2.324,0.346,4.564,0.951,6.697l-6.057,3.497l6.023,10.433l6.062-3.5
		c3.124,3.213,7.116,5.558,11.593,6.692v7.002h12.047v-7.002c4.477-1.133,8.47-3.479,11.594-6.692l6.062,3.5l6.023-10.433
		l-6.058-3.497C605.193,73.53,605.539,71.289,605.539,68.966z M580.942,81.515c-6.919,0-12.548-5.629-12.548-12.549
		s5.629-12.549,12.548-12.549c6.92,0,12.549,5.629,12.549,12.549S587.862,81.515,580.942,81.515z"/>
	<path style="fill:#6E7DD0;" d="M655.136,98.498c0.614-1.552,0.976-3.139,1.135-4.723l4.97-0.734l-1.264-8.56l-4.973,0.735
		c-1.237-2.971-3.283-5.594-5.974-7.534l1.851-4.676l-8.045-3.185l-1.851,4.676c-3.289-0.427-6.576,0.084-9.511,1.404l-3.123-3.939
		l-6.781,5.375l3.121,3.937c-0.968,1.264-1.791,2.669-2.405,4.221c-0.614,1.552-0.976,3.139-1.135,4.723l-4.97,0.734l1.264,8.56
		l4.973-0.734c1.237,2.971,3.283,5.593,5.973,7.534l-1.851,4.676l8.045,3.185l1.851-4.676c3.289,0.427,6.576-0.084,9.512-1.404
		l3.123,3.94l6.781-5.375l-3.121-3.937C653.698,101.455,654.521,100.05,655.136,98.498z M635.393,100.376
		c-4.62-1.829-6.892-7.077-5.062-11.697c1.829-4.621,7.077-6.892,11.697-5.063c4.621,1.829,6.892,7.077,5.063,11.698
		C645.261,99.934,640.014,102.205,635.393,100.376z"/>
	<path style="fill:#A4B1E3;" d="M261.859,238.057c0-2.076-0.309-4.077-0.849-5.982l5.412-3.124l-5.381-9.321l-5.416,3.127
		c-2.791-2.87-6.358-4.966-10.358-5.979v-6.255h-10.763v6.255c-4,1.013-7.567,3.108-10.357,5.978l-5.415-3.126l-5.381,9.321
		l5.412,3.124c-0.54,1.905-0.849,3.907-0.849,5.982c0,2.076,0.309,4.077,0.849,5.982l-5.412,3.124l5.381,9.321l5.415-3.126
		c2.791,2.87,6.358,4.966,10.357,5.978v6.255h10.763v-6.255c4-1.013,7.567-3.108,10.358-5.979l5.416,3.126l5.381-9.321l-5.412-3.124
		C261.551,242.135,261.859,240.133,261.859,238.057z M239.885,249.268c-6.181,0-11.21-5.029-11.21-11.211s5.029-11.211,11.21-11.211
		c6.182,0,11.212,5.029,11.212,11.211S246.067,249.268,239.885,249.268z"/>
	<g>
		<polygon style="fill:#A4B1E3;" points="425.027,280.722 339.445,307.781 286.36,195.393 371.942,168.334 		"/>
		<polygon style="fill:#FFFFFF;" points="426.693,272.722 339.445,307.781 286.36,195.393 373.609,160.334 		"/>
		<path style="fill:#BC7560;" d="M286.36,289.388l7.667-13c0,0-0.786-17.667,2.44-23c3.226-5.333,11.56-17.667,12.56-25
			c0,0,4.783-2.667,5.725,4.333c0.942,7-2.058,18.278-2.058,18.278s8,4.722,7,13.055l5,12l-11.333,28.917L286.36,289.388z"/>
		<path style="fill:#3C497A;" d="M110.633,248.577l-43.127,15.865c-3.06,1.126-5.936,2.707-8.482,4.744
			c-6.017,4.813-15.866,14.902-20.331,31.87c-6.667,25.333-31.333,151.333,33.333,173c0,0,14,2.333,27.667-6.667H245.36
			l-12.333-41.333c0,0,9.667,16.333,33,14c23.333-2.333,36.01-66.236,39.667-86c3.343-18.069,14-53.333,14-53.333l-32-17.405
			l-35.667,54.405l-25-43.333c0,0-12.667-25.333-29.667-30c-17-4.667-32.105-9-32.105-9L110.633,248.577z"/>
		<path style="fill:none;stroke:#6E7DD0;stroke-linecap:round;stroke-linejoin:round;stroke-miterlimit:10;" d="M172.61,262.561
			l26.342,33.574c1.219,1.571,1.392,3.715,0.439,5.461l-8.699,15.939l13.823,8.903c1.547,0.996,2.422,2.762,2.277,4.596
			l-5.621,71.393"/>
		<path style="fill:none;stroke:#6E7DD0;stroke-linecap:round;stroke-linejoin:round;stroke-miterlimit:10;" d="M104.938,259.805
			l-9.909,33.791c-0.815,2.581-0.069,5.401,1.916,7.242l18.228,16.9l-12.027,12.606c-2.065,2.164-2.526,5.401-1.149,8.056
			l10.161,19.583"/>
		<path style="fill:#D7DBFB;" d="M165.252,255.388l-54.618-6.811c0,0,11.784,36.365,22.295,86.713l9.549-11.901
			c10.382,19.18,31.12,27,31.12,27l-28.871,55.703l-0.005-0.015c2.436,20.223,4.046,40.971,4.275,61.313h53.352
			C198.486,439.034,178.877,298.108,165.252,255.388z"/>
		<path style="fill:#283359;" d="M148.998,467.388h53.352c-0.94-6.898-2.814-20.469-5.305-37.656h-49.903
			C148.193,442.294,148.857,454.917,148.998,467.388z"/>
		<path style="fill:#18203C;" d="M173.598,350.388c0,0-0.904-25.617-26.522-32.854l-4.599,5.854
			C142.478,323.388,151.336,342.388,173.598,350.388z"/>
		<path style="fill:#BC7560;" d="M142.478,323.388l12.844-16.35c0,0,8.997-17.258,16.997-17.133s10.375-4.625,12.25-3.5
			s1.375,5.5-1.5,7.625c0,0,26.025-7.218,28.524-4.475c3.667,4.025-19.565,13.167-19.565,13.167s4,6-0.833,10.434
			c0,0,0.5,6.125-3.625,9.125c0,0,0.5,5.375-4,8s-18.25,9.859-18.25,9.859l-2.106,4.85
			C148.61,336.055,142.478,323.388,142.478,323.388z"/>
		<path style="fill:#24110D;" d="M168.86,178.93c0,0,9.125,15.5-4.375,25.75l-5.851-21.654L168.86,178.93z"/>
		<path style="fill:#FFFFFF;" d="M118.179,241.805l-7.546,6.772c-2.341,2.101-2.945,5.529-1.444,8.293
			c3.763,6.934,11.684,19.644,22.282,26.447l17.513-13.387l17.708,8.458c0,0,3.456-16.333-1.439-23l-9.933-12.833L118.179,241.805z"
			/>
		<path style="fill:#BC7560;" d="M118.182,241.736l1.178-28.056l35.375,1.375l0.875,37l-6.625,17.875
			c0,0-17.473-9.313-27.346-19.272C119.295,248.294,118.042,245.063,118.182,241.736z"/>
		<path style="fill:#6E7DD0;" d="M149.048,315.024l6.274-7.986c0,0,2.584-4.953,6.211-9.533l-2.673-13.117l0.991-8.776
			c0.128-1.131-0.232-2.252-0.983-3.108c-1.68-1.914-5.202-4.853-10.675-4.284c-5.529,0.576-7.244,4.388-7.776,6.687
			c-0.23,0.994-0.077,2.034,0.435,2.918l5.342,9.229L149.048,315.024z"/>
		<path style="fill:none;stroke:#A4B1E3;stroke-linecap:round;stroke-linejoin:round;stroke-miterlimit:10;" d="M146.193,287.055
			c0,0,6.167-5,12.667-2.667"/>
		<polygon style="fill:#6E7DD0;" points="172.674,352.171 156.103,384.143 159.36,416.055 185.693,416.055 		"/>
		<path style="fill:#BC7560;" d="M173.11,219.68l-7.716-35.802c-4.917,2.721-11.154,1.734-19.284-0.448
			c-10.25-2.75-17.75-0.5-17.75-0.5s6,6.75,3.25,15c-1.944,5.832-6.439,9.905-8.913,11.797c0,0,0,0,0,0
			c-0.021-0.467-0.073-0.941-0.147-1.419c-0.014-0.093-0.031-0.186-0.047-0.28c-0.083-0.474-0.184-0.951-0.321-1.429
			c-0.091-0.316-0.194-0.623-0.305-0.924c-0.036-0.097-0.075-0.191-0.113-0.287c-0.079-0.202-0.161-0.402-0.249-0.598
			c-0.048-0.108-0.098-0.213-0.149-0.318c-0.087-0.18-0.177-0.357-0.27-0.53c-0.055-0.102-0.109-0.205-0.167-0.305
			c-0.103-0.179-0.21-0.352-0.32-0.524c-0.053-0.083-0.104-0.169-0.159-0.251c-0.16-0.237-0.326-0.467-0.499-0.688
			c-0.066-0.084-0.136-0.162-0.204-0.244c-0.114-0.137-0.228-0.274-0.347-0.404c-0.09-0.099-0.183-0.193-0.276-0.287
			c-0.1-0.102-0.201-0.203-0.304-0.3c-0.103-0.098-0.208-0.192-0.314-0.284c-0.096-0.083-0.193-0.162-0.29-0.24
			c-0.115-0.092-0.229-0.184-0.346-0.27c-0.085-0.062-0.172-0.118-0.259-0.177c-0.298-0.203-0.601-0.387-0.911-0.547
			c-0.023-0.012-0.046-0.027-0.07-0.038c-0.15-0.075-0.301-0.139-0.453-0.204c-0.074-0.032-0.148-0.065-0.223-0.094
			c-0.149-0.058-0.299-0.109-0.45-0.157c-0.077-0.024-0.155-0.048-0.233-0.069c-0.153-0.043-0.307-0.082-0.462-0.114
			c-0.07-0.014-0.14-0.025-0.21-0.037c-0.164-0.028-0.328-0.056-0.493-0.072c0,0,0,0,0,0l0,0c-0.745-0.07-1.494-0.013-2.227,0.198
			c-4.113,1.184-6.17,6.581-4.594,12.054c1.576,5.473,6.188,8.95,10.301,7.766c0.458-0.132,0.887-0.324,1.292-0.555
			c1.381,4.815,2.798,8.921,4.105,11.207c5,8.75,30.125,13.625,41.875,8.625S173.11,219.68,173.11,219.68z"/>
		<path style="fill:#9D5742;" d="M146.11,183.43c-10.25-2.75-17.75-0.5-17.75-0.5s1.766,2.002,2.943,5.144
			c3.411-0.304,8.985-0.48,15.932,0.481c11.75,1.625,18.159-4.677,18.159-4.677C160.478,186.598,154.24,185.611,146.11,183.43z"/>
		<path style="fill:#24110D;" d="M151.11,152.055c-24-2.625-36.875,22.875-36.875,22.875s-3.75-0.75-9,3.375s0,14.625,0,14.625
			l4.449,7.087c0.644-0.538,1.378-0.948,2.198-1.184c4.113-1.184,8.725,2.292,10.301,7.765c0.304,1.056,0.47,2.108,0.515,3.129
			c2.474-1.892,6.969-5.964,8.913-11.797c2.75-8.25-3.25-15-3.25-15s7.5-2.25,17.75,0.5s17.5,3.625,22.875-2.47
			C174.36,174.865,175.11,154.68,151.11,152.055z"/>
		
			<line style="fill:none;stroke:#9D5742;stroke-linecap:round;stroke-linejoin:round;stroke-miterlimit:10;" x1="118.985" y1="211.001" x2="111.36" y2="203.93"/>
		
			<line style="fill:none;stroke:#9D5742;stroke-linecap:round;stroke-linejoin:round;stroke-miterlimit:10;" x1="115.173" y1="207.93" x2="112.485" y2="209.727"/>
		<path style="fill:#9D5742;" d="M155.322,239.869c0,0-19.04,0.564-25.688-5c0,0,4.65,8.686,25.688,9.811V239.869z"/>
		<path style="fill:none;stroke:#6E7DD0;stroke-linecap:round;stroke-linejoin:round;stroke-miterlimit:10;" d="M278.183,297.824
			c0,0,20.127,15.931,36.569,19.914"/>
		
			<line style="fill:none;stroke:#6E7DD0;stroke-linecap:round;stroke-linejoin:round;stroke-miterlimit:10;" x1="233.027" y1="426.055" x2="214.027" y2="350.388"/>
		<path style="fill:none;stroke:#6E7DD0;stroke-linecap:round;stroke-linejoin:round;stroke-miterlimit:10;" d="M252.027,337.722
			c0,0-13.667,17-12,37.333"/>
		<path style="fill:none;stroke:#6E7DD0;stroke-linecap:round;stroke-linejoin:round;stroke-miterlimit:10;" d="M71.693,412.722
			c0,0,3.667-26,26.333-43c22.667-17,34.902-34.432,34.902-34.432"/>
		<path style="fill:none;stroke:#6E7DD0;stroke-linecap:round;stroke-linejoin:round;stroke-miterlimit:10;" d="M99.693,467.388
			c0,0,25.877-24.386,45.029-61.313"/>
		
			<line style="fill:none;stroke:#6E7DD0;stroke-linecap:round;stroke-linejoin:round;stroke-miterlimit:10;" x1="89.927" y1="376.941" x2="86.693" y2="348.055"/>
		<path style="fill:none;stroke:#6E7DD0;stroke-linecap:round;stroke-linejoin:round;stroke-miterlimit:10;" d="M127.123,342.569
			c0,0,16.877,22.188,34.891,30.171"/>
		
			<line style="fill:none;stroke:#9D5742;stroke-linecap:round;stroke-linejoin:round;stroke-miterlimit:10;" x1="183.068" y1="294.03" x2="175.166" y2="297.017"/>
		
			<line style="fill:none;stroke:#9D5742;stroke-linecap:round;stroke-linejoin:round;stroke-miterlimit:10;" x1="192.027" y1="302.722" x2="181.86" y2="306.357"/>
		
			<line style="fill:none;stroke:#9D5742;stroke-linecap:round;stroke-linejoin:round;stroke-miterlimit:10;" x1="191.193" y1="313.155" x2="181.251" y2="315.612"/>
		
			<line style="fill:none;stroke:#9D5742;stroke-linecap:round;stroke-linejoin:round;stroke-miterlimit:10;" x1="187.568" y1="322.28" x2="180.616" y2="324.772"/>
		
			<line style="fill:none;stroke:#9D5742;stroke-linecap:round;stroke-linejoin:round;stroke-miterlimit:10;" x1="181.86" y1="304.472" x2="180.616" y2="327.222"/>
		
			<line style="fill:none;stroke:#9D5742;stroke-linecap:round;stroke-linejoin:round;stroke-miterlimit:10;" x1="319.693" y1="264.055" x2="317.193" y2="272.722"/>
		<path style="fill:none;stroke:#9D5742;stroke-linecap:round;stroke-linejoin:round;stroke-miterlimit:10;" d="M157.634,195.888
			c0,0,0.726,5.667,2.726,10c2,4.333,5.285,6.333,3.452,9.333c-1.833,3-7.917,2.833-7.917,2.833"/>
		<path style="fill:#FFFFFF;" d="M143.86,219.222l12.632,2.833c0,0-1.376,6.182-8.632,4.833
			C142.478,225.888,143.86,219.222,143.86,219.222z"/>
		<path style="fill:#24110D;" d="M148.443,199.138c0,1.059-0.671,1.917-1.5,1.917c-0.828,0-1.5-0.858-1.5-1.917
			c0-1.059,0.672-1.917,1.5-1.917C147.772,197.222,148.443,198.08,148.443,199.138z"/>
		<ellipse style="fill:#24110D;" cx="162.849" cy="198.43" rx="1.5" ry="1.917"/>
		<path style="fill:#24110D;" d="M138.069,193.721c0.495-1.144,1.285-1.96,2.16-2.615c0.872-0.673,1.871-1.139,2.925-1.439
			c1.051-0.301,2.18-0.401,3.298-0.254c1.111,0.119,2.237,0.523,3.17,1.31l0.041,0.035c0.039,0.033,0.044,0.092,0.011,0.131
			c-0.019,0.023-0.048,0.034-0.075,0.033c-0.998-0.046-1.994-0.051-2.984,0.07c-0.987,0.123-1.969,0.309-2.922,0.6
			c-0.961,0.261-1.907,0.585-2.827,0.974c-0.915,0.397-1.822,0.829-2.687,1.322c-0.044,0.025-0.101,0.01-0.127-0.035
			c-0.015-0.026-0.016-0.057-0.005-0.082L138.069,193.721z"/>
		<path style="fill:#24110D;" d="M158.611,191.208c0.556-0.84,1.277-1.296,2.021-1.585c0.748-0.308,1.545-0.394,2.335-0.321
			c0.788,0.073,1.581,0.336,2.271,0.81c0.694,0.447,1.304,1.13,1.583,2.074l0.021,0.07c0.014,0.046-0.013,0.094-0.059,0.108
			c-0.021,0.006-0.042,0.004-0.061-0.004c-0.627-0.286-1.261-0.547-1.925-0.723c-0.663-0.172-1.339-0.299-2.024-0.346
			c-0.682-0.075-1.371-0.102-2.06-0.078c-0.687,0.033-1.38,0.087-2.058,0.189c-0.048,0.007-0.092-0.026-0.099-0.073
			c-0.003-0.022,0.002-0.044,0.013-0.061L158.611,191.208z"/>
	</g>
	<g>
		<path style="fill:#3C497A;" d="M519.193,250l51.333,16.888c0,0,18.167,7.833,23.833,33.5c5.667,25.667,11.667,102.5,2.667,117.5
			s-20.167,12.667-20.167,12.667l5,37.333H404.193l6.833-44.667c0,0-36.5-7-24-47c10.258-32.825,23.333-96.833,23.333-96.833
			s8.333-20.333,26.667-22c18.333-1.667,32.333-5.498,32.333-5.498L519.193,250z"/>
		<path style="fill:#D7DBFB;" d="M519.193,250l-45.255,1.717c-0.317,0.432-0.638,0.846-0.952,1.292
			c-4.311,6.113-8.066,17.84-11.319,32.778c4.649,5.391,11.807,11.847,20.443,13.518c0,0-14.75,45-21.25,70.5
			c-3.088,12.115-7.31,24.62-13.862,34.549c-2.635,35.014-4.888,63.534-4.888,63.534h56.106
			C493.026,397.305,519.193,250,519.193,250z"/>
		<path style="fill:#283359;" d="M445.524,423.805c-1.949,25.537-3.414,44.083-3.414,44.083h56.106
			c-0.931-12.656-0.849-27.785-0.095-44.083H445.524z"/>
		<path style="fill:#3C497A;" d="M566.36,390.055c-11.667-25.333-25-21.333-53.333-23.667c-19.317-1.591-38.858-5.049-49.344-7.09
			c-1.042,3.728-1.999,7.274-2.823,10.507c-2.303,9.035-5.24,18.285-9.299,26.526c43.765,23.503,112.466,30.724,112.466,30.724
			S578.027,415.388,566.36,390.055z"/>
		<path style="fill:#FFFFFF;" d="M515.718,243.743l4.988,5.404c1.884,1.975,2.497,4.841,1.572,7.408
			c-2.894,8.026-12.688,22.296-21.918,28.667l-16.333-12.833l-16,8.667c0,0-2.5-12.167,0.401-26.325
			c0.612-2.988,2.256-5.669,4.655-7.553l3.224-2.531L515.718,243.743z"/>
		<path style="fill:#6E7DD0;" d="M488.258,274.632c-2.507-2.467-6.436-2.745-9.266-0.656l-5.787,4.274l3.015,6.972l-1.211,8.29
			l7.101,5.794c0,0-8.109,24.74-14.951,47.927l-1.874,12.823l20.897,3.13l2.928-76.692l4.597-6.498L488.258,274.632z"/>
		<path style="fill:none;stroke:#6E7DD0;stroke-linecap:round;stroke-linejoin:round;stroke-miterlimit:10;" d="M482.11,299.305
			c0,0-14.75,45-21.25,70.5s-18,52.75-45.75,54"/>
		
			<line style="fill:none;stroke:#6E7DD0;stroke-linecap:round;stroke-linejoin:round;stroke-miterlimit:10;" x1="395.841" y1="363.047" x2="455.86" y2="277.888"/>
		<path style="fill:none;stroke:#A4B1E3;stroke-linecap:round;stroke-linejoin:round;stroke-miterlimit:10;" d="M476.22,285.222
			c0,0,6.765-2.667,12.89,1.271"/>
		<path style="fill:#9D5742;" d="M475.327,251.793l3.366-24.571l39.417-4.64l-2.434,21.534c-0.124,1.098-0.433,2.17-0.933,3.156
			c-2.458,4.845-11.191,19.205-30.716,25.117C484.027,272.388,474.193,261.222,475.327,251.793z"/>
		<path style="fill:#24110D;" d="M474.36,189.888c0,0-13.167-4.5-9.833-19.167l2.333-3.388c0,0-1.874-6.112,2.313-9.945
			c4.187-3.833,9.687-1,9.687-1s1.5-6.833,9.667-6.333c8.167,0.5,8.667,4.5,8.667,4.5s5.167-5.667,13-2
			c7.833,3.667,7.167,9.667,7.167,9.667s5.667-3.667,10.5,1.167c4.833,4.833,2.833,8.667,2.833,8.667s4.333-1.167,7.333,4.5
			c3,5.667-0.667,15.833-9.5,16.5l-8.5,16.333c0,0,1.167,26-20.5,32.833c-21.667,6.833-39.5-1.5-40.167-16
			c-0.667-14.5,14.167-24.167,14.167-24.167L474.36,189.888z"/>
		<path style="fill:#BC7560;" d="M474.527,180.888l-9,32.833c0,0,12.667-4.667,23.5,3.667c10.833,8.333,14.667,5.667,18.5-1.167
			c1.788-3.188,3.286-6.554,4.376-9.239c1.209-2.978,1.124-6.298-0.132-9.256c-1.284-3.024-2.668-7.574-2.578-13.005
			c0,0-6.833-0.333-8.5-3.833c0,0-8.5,4.167-15.833-1.167C484.86,179.722,480.86,183.555,474.527,180.888z"/>
		<path style="fill:#9D5742;" d="M509.193,184.722c0,0-6.833-0.333-8.5-3.833c0,0-8.5,4.167-15.833-1.167c0,0-4,3.833-10.333,1.167
			l-0.351,1.28c2.023,1.253,5.755,2.51,11.684,0.762c0,0,6.175,3.875,13.338,1.875c0,0,4.508,3.645,10.35,5.027
			C509.307,188.239,509.163,186.535,509.193,184.722z"/>
		<path style="fill:#BC7560;" d="M528.35,193.961c-2.795-1.244-6.353,0.354-8.867,3.667c-1.127,1.484-1.425,3.447-0.857,5.222
			c1.605,5.014,1.306,10.024,1.306,10.024c3.529,1.571,8.275-1.389,10.6-6.611C532.856,201.04,531.88,195.532,528.35,193.961z"/>
		<path style="fill:#18203C;" d="M455.86,277.888c0,0,26.833,10.333,26.25,21.417C482.11,299.305,465.693,296.805,455.86,277.888z"
			/>
		<path style="fill:#BC7560;" d="M456.733,279.648l4.005-6.258c0,0-3.828-15.053,0-22.454c3.827-7.4-0.73-15.71,0-16.873
			c0.729-1.163,6.144,0.546,8.516,8.516s3.732,10.43,3.732,10.43s37.605-15.406,43.825-12.822c6.22,2.584-6.507,8.325-6.507,8.325
			l-6.634,5.03c0,0-1.882,7.122-5.04,10.95c-3.158,3.828-16.65,21.96-16.65,21.96l-2.73,12.246
			C479.251,298.697,463.943,293.055,456.733,279.648z"/>
		<path style="fill:#BC7560;" d="M412.756,338.849c0,0-7.625-3.426-17.363-4.044c0,0-16.659,10.125-15.409,15
			c0,0,0.5,2.625,2.625,2.75c0,0-3.417,4.75,0,8.5c0,0-1.75,3.667,1.809,7.333c0,0-2.809,7.583,2.362,9.657
			C386.781,378.046,402.727,351.191,412.756,338.849z"/>
		<path style="fill:none;stroke:#9D5742;stroke-linecap:round;stroke-linejoin:round;stroke-miterlimit:10;" d="M382.61,352.555
			c0,0,5.527-5.965,10.916-9.463"/>
		<path style="fill:none;stroke:#9D5742;stroke-linecap:round;stroke-linejoin:round;stroke-miterlimit:10;" d="M382.61,361.055
			c0,0,6.137-6.163,12.784-10.025"/>
		<path style="fill:none;stroke:#9D5742;stroke-linecap:round;stroke-linejoin:round;stroke-miterlimit:10;" d="M510.304,248.511
			c0,0-18.181,6.124-28.323,12.439"/>
		
			<line style="fill:none;stroke:#9D5742;stroke-linecap:round;stroke-linejoin:round;stroke-miterlimit:10;" x1="510.304" y1="248.511" x2="486.957" y2="266.213"/>
		<path style="fill:none;stroke:#6E7DD0;stroke-linecap:round;stroke-linejoin:round;stroke-miterlimit:10;" d="M443.259,295.768
			c0,0,8.488,16.681,32.961,21.901"/>
		<path style="fill:none;stroke:#6E7DD0;stroke-linecap:round;stroke-linejoin:round;stroke-miterlimit:10;" d="M498.63,414.318
			c0,0,41.936,11.762,65.396,12.737"/>
		<path style="fill:none;stroke:#6E7DD0;stroke-linecap:round;stroke-linejoin:round;stroke-miterlimit:10;" d="M501.884,365.281
			l32.56,2.431c0,0,26.536,2.723,29.393,17.366"/>
		
			<line style="fill:none;stroke:#6E7DD0;stroke-linecap:round;stroke-linejoin:round;stroke-miterlimit:10;" x1="546.027" y1="369.622" x2="549.027" y2="321.055"/>
		<path style="fill:none;stroke:#6E7DD0;stroke-linecap:round;stroke-linejoin:round;stroke-miterlimit:10;" d="M532.366,265.431
			l5.76,22.159c0.749,3.66-0.31,7.413-2.943,10.435l-14.84,17.031l10.149,14.363c2.921,4.135,3.064,9.202,0.379,13.443
			l-11.347,23.662"/>
		
			<line style="fill:none;stroke:#6E7DD0;stroke-linecap:round;stroke-linejoin:round;stroke-miterlimit:10;" x1="427.555" y1="318.05" x2="428.86" y2="303.972"/>
		
			<line style="fill:none;stroke:#9D5742;stroke-linecap:round;stroke-linejoin:round;stroke-miterlimit:10;" x1="384.419" y1="368.388" x2="395.841" y2="360.055"/>
		<path style="fill:none;stroke:#9D5742;stroke-linecap:round;stroke-linejoin:round;stroke-miterlimit:10;" d="M479.11,195.18
			c-1.959,2.473-10.447,11.801-9.5,14.625c0.947,2.824,5.204,2.627,5.204,2.627"/>
		<path style="fill:none;stroke:#FFFFFF;stroke-linecap:round;stroke-linejoin:round;stroke-miterlimit:10;" d="M473.86,221.68
			c0,0,5.375,1.875,8.875,0"/>
		<path style="fill:#24110D;" d="M476.22,195.778c-0.373,0.991-1.303,1.558-2.079,1.266c-0.775-0.292-1.102-1.331-0.729-2.322
			c0.373-0.991,1.303-1.558,2.079-1.266C476.266,193.747,476.593,194.787,476.22,195.778z"/>
		<path style="fill:#24110D;" d="M490.248,197.523c-0.256,1.027-1.115,1.698-1.919,1.497c-0.804-0.2-1.248-1.195-0.992-2.223
			c0.256-1.027,1.115-1.697,1.919-1.497C490.06,195.501,490.504,196.496,490.248,197.523z"/>
		
			<line style="fill:none;stroke:#9D5742;stroke-linecap:round;stroke-linejoin:round;stroke-miterlimit:10;" x1="520.985" y1="205.805" x2="527.235" y2="198.505"/>
		
			<line style="fill:none;stroke:#9D5742;stroke-linecap:round;stroke-linejoin:round;stroke-miterlimit:10;" x1="524.61" y1="201.571" x2="527.235" y2="204.18"/>
		<path style="fill:#24110D;" d="M485.33,190.248c0.857-0.812,1.842-1.204,2.842-1.414c1.005-0.225,2.045-0.214,3.065-0.002
			c1.017,0.229,2.026,0.662,2.873,1.36c0.844,0.696,1.536,1.662,1.691,2.82l0.008,0.058c0.007,0.05-0.029,0.096-0.079,0.103
			c-0.028,0.004-0.055-0.006-0.074-0.023c-0.673-0.618-1.428-1.126-2.242-1.53c-0.829-0.375-1.701-0.646-2.593-0.832
			c-0.891-0.197-1.801-0.311-2.716-0.362c-0.914-0.039-1.837-0.046-2.749,0.02c-0.05,0.004-0.094-0.034-0.098-0.085
			c-0.002-0.028,0.009-0.055,0.028-0.073L485.33,190.248z"/>
		<path style="fill:#24110D;" d="M472.294,188.453c0.23-0.899,0.833-1.443,1.486-1.759c0.659-0.341,1.414-0.42,2.118-0.295
			c0.697,0.144,1.367,0.449,1.85,0.984c0.5,0.497,0.849,1.167,0.887,2.055l0.004,0.087c0.002,0.045-0.033,0.083-0.078,0.085
			c-0.017,0.001-0.032-0.004-0.045-0.012c-0.469-0.283-0.937-0.557-1.431-0.773c-0.49-0.227-1.014-0.362-1.538-0.458
			c-1.046-0.213-2.159-0.109-3.157,0.262c-0.045,0.017-0.094-0.006-0.111-0.051c-0.006-0.017-0.007-0.035-0.003-0.051
			L472.294,188.453z"/>
	</g>
	<g>
		<path style="fill:#24110D;" d="M816.86,227.722c-25.333-6.333-16.667-20.833-18.167-38.667c-1.5-17.833-15-20.667-25.667-20.5
			c-6.374,0.1-18.755-1.11-27.691-2.1l-10.476-1.234c0,0-1.833-9-14-5.833c-12.167,3.167-16.667,38.333,12.833,41.833h14
			l-0.669-9.927c8.439,8.313,18.169,12.594,18.169,12.594c-0.333,8.333,7.833,14.833,7.833,14.833s-36.667,2.833-45.833,4
			c-9.167,1.167-29.833,4.333-34.833,27.167c-5,22.833,18.333,32.167,18.333,32.167l48.833,2.5c0,0,69.833,9.5,78.833-10.333
			C847.36,254.388,842.193,234.055,816.86,227.722z"/>
		<path style="fill:#83AEC3;" d="M833.36,273.722l-31.484-14.261c-2.207-6.612-10.198-20.148-38.349-16.072
			c-11.152,1.615-18.656,8.671-23.371,15.317c-8.071,2.348-21.565,6.14-29.796,7.725c-12.333,2.376-18.702,17.291-18.702,17.291
			s-47.631,78.333-46.631,102.357c1,24.023,49,15.643,49,15.643c-5.667,16.333-21.333,65.333-21.333,65.333h169.78l-18.113-87.333
			c0,0,22-66,24-83.667C850.36,278.388,833.36,273.722,833.36,273.722z"/>
		<path style="fill:#BC7560;" d="M746.86,256.722l-4.833-22.333l28.833-13.333l13.082,27.651c1.022,2.161,1.237,4.617,0.604,6.923
			l-11.686,42.594h-42L746.86,256.722z"/>
		<path style="fill:#9D5742;" d="M761.611,225.332l-19.584,9.056l3.836,17.727l0,0C745.863,252.115,762.594,246.06,761.611,225.332z
			"/>
		<path style="fill:#BC7560;" d="M773.027,218.722c0,0-8.167-6.5-7.833-14.833c0,0-20.423-8.989-27.748-26.216
			c-0.027,0.018-0.059,0.031-0.085,0.049c0,0-14.333,22.667-13.333,43c1,20.333,11.667,34.333,30.333,22
			c8.71-5.755,15.024-14.691,19.181-23.318C773.21,218.967,773.027,218.722,773.027,218.722z"/>
		<path style="fill:#9D5742;" d="M737.445,177.672c-0.027,0.018-0.059,0.031-0.085,0.049c0,0-2.734,4.324-5.731,10.889
			c6.398,6.099,18.077,14.69,33.564,15.278C765.193,203.888,744.771,194.899,737.445,177.672z"/>
		<path style="fill:#BC7560;" d="M783.059,221.558c-3.514,4.173-9.119,5.234-12.52,2.371c-3.401-2.864-3.31-8.568,0.204-12.741
			c3.513-4.173,9.119-5.234,12.52-2.371S786.573,217.385,783.059,221.558z"/>
		<path style="fill:#FFFFFF;" d="M730.86,298.222c0,0-17.5,38.167-19.5,55.5c-2,17.333-3,113.333-3,113.333h58.705
			c0,0-16.705-107-11.039-123.333c5.667-16.333,16.833-45.5,16.833-45.5H730.86z"/>
		<path style="fill:#6E7DD0;" d="M708.36,467.055h58.705c0,0-4.124-26.416-7.579-55h-50.282
			C708.642,440.021,708.36,467.055,708.36,467.055z"/>
		<path style="fill:#83AEC3;" d="M694.027,401.722l33-6l68.333,8.333c0,0,20.011,3.586,29-24.333l-47-33.383l-79.667,4.383
			L694.027,401.722z"/>
		<path style="fill:#BC7560;" d="M758.193,366.281l22.917-10.976l1.75-8.068c0,0-12.021-3.605-22.354,1.044
			C760.506,348.281,756.714,361.633,758.193,366.281z"/>
		<path style="fill:none;stroke:#6E7DD0;stroke-linecap:round;stroke-linejoin:round;stroke-miterlimit:10;" d="M694.027,401.722
			l33-6l68.333,8.333c0,0,20.011,3.586,29-24.333"/>
		<path style="fill:none;stroke:#6E7DD0;stroke-linecap:round;stroke-linejoin:round;stroke-miterlimit:10;" d="M668.36,367.524
			c0,0,10.22-18.373,43.61-17.587"/>
		<path style="fill:none;stroke:#6E7DD0;stroke-linecap:round;stroke-linejoin:round;stroke-miterlimit:10;" d="M711.97,300.305
			l-12.058,19.768c-3.794,6.219-5.195,13.606-3.942,20.782l1.723,9.866"/>
		<path style="fill:none;stroke:#6E7DD0;stroke-linecap:round;stroke-linejoin:round;stroke-miterlimit:10;" d="M727.027,395.722
			l34-9.643c0,0-6.667-26.659,0-38.841"/>
		<polygon style="fill:none;stroke:#6E7DD0;stroke-linecap:round;stroke-linejoin:round;stroke-miterlimit:10;" points="
			776.901,418.555 832.414,418.555 835.158,431.786 814.36,439.555 776.901,433.055 		"/>
		
			<line style="fill:none;stroke:#6E7DD0;stroke-linecap:round;stroke-linejoin:round;stroke-miterlimit:10;" x1="779.102" y1="362.651" x2="795.027" y2="304.388"/>
		
			<line style="fill:none;stroke:#9D5742;stroke-linecap:round;stroke-linejoin:round;stroke-miterlimit:10;" x1="773.027" y1="218.722" x2="780.36" y2="211.055"/>
		
			<line style="fill:none;stroke:#9D5742;stroke-linecap:round;stroke-linejoin:round;stroke-miterlimit:10;" x1="776.693" y1="214.888" x2="780.36" y2="217.305"/>
		
			<line style="fill:none;stroke:#9D5742;stroke-linecap:round;stroke-linejoin:round;stroke-miterlimit:10;" x1="737.445" y1="177.672" x2="734.693" y2="169.222"/>
		<path style="fill:none;stroke:#9D5742;stroke-linecap:round;stroke-linejoin:round;stroke-miterlimit:10;" d="M801.388,219.081
			c2.728,5.056,8.177,12.186,18.472,16.641"/>
		<path style="fill:none;stroke:#9D5742;stroke-linecap:round;stroke-linejoin:round;stroke-miterlimit:10;" d="M735.36,203.888
			c0,0-9.708,17-8.167,18.833c1.542,1.833,8.167,1.458,8.167,1.458"/>
		<path style="fill:none;stroke:#9D5742;stroke-linecap:round;stroke-linejoin:round;stroke-miterlimit:10;" d="M735.985,230.18
			c0,0,5.375,2.442,8.625-2.779"/>
		<path style="fill:#24110D;" d="M731.475,205.208c-0.373,0.991-1.303,1.557-2.079,1.266c-0.775-0.292-1.102-1.331-0.729-2.322
			c0.373-0.991,1.303-1.557,2.079-1.266C731.521,203.178,731.848,204.217,731.475,205.208z"/>
		<path style="fill:#24110D;" d="M747.315,206.938c-0.256,1.027-1.115,1.697-1.919,1.497c-0.804-0.2-1.248-1.195-0.992-2.223
			c0.256-1.027,1.115-1.697,1.919-1.497C747.127,204.916,747.571,205.911,747.315,206.938z"/>
		
			<ellipse style="fill:none;stroke:#FFFFFF;stroke-linecap:round;stroke-linejoin:round;stroke-miterlimit:10;" cx="725.116" cy="205.597" rx="6.994" ry="9.292"/>
		
			<ellipse style="fill:none;stroke:#FFFFFF;stroke-linecap:round;stroke-linejoin:round;stroke-miterlimit:10;" cx="746.742" cy="206.841" rx="8.643" ry="9.661"/>
		<path style="fill:none;stroke:#FFFFFF;stroke-linecap:round;stroke-linejoin:round;stroke-miterlimit:10;" d="M732.11,205.597
			c0,0,2.994-2.167,5.989,0.708"/>
		
			<line style="fill:none;stroke:#FFFFFF;stroke-linecap:round;stroke-linejoin:round;stroke-miterlimit:10;" x1="755.385" y1="206.841" x2="773.027" y2="208.68"/>
	</g>
	
		<line style="fill:none;stroke:#3C497A;stroke-width:2;stroke-linecap:round;stroke-linejoin:round;stroke-miterlimit:10;" x1="18.36" y1="468.055" x2="867.495" y2="468.055"/>
</g>
</svg>
